<svg xmlns="http://www.w3.org/2000/svg" width="584.273" height="413.525" viewBox="0 0 154.589 109.412"><path d="M87 95.46c-11.346-8.678-28.081-6.708-38.982 1.74-8.455 6.248-13.649 17.293-11.278 27.787 2.796 16.14 7.417 32.89 18.795 45.222 7.633 8.312 19.048 14.466 30.599 12.29 9.382-1.44 17.6-7.619 22.153-15.87 7.13-12.062 6.982-27.632.758-40.03C104.64 114.55 97.726 102.892 87 95.46Z" style="fill:#ffe9bf;stroke:none;stroke-width:.264583" transform="translate(-34.027 -74.991)"/><path d="M46.751 137.106c5.176-10.654 1.3-23.812 8.892-33.552-5.97-9.917-18.819 12.852-15.876 21.37 1.268 5.076 4.545 25.41 8.496 17.97-.556-1.914-1.263-3.797-1.512-5.788zm41.026-33.378c-2.168 5.68 6.07-.804 0 0zm5.077 38.242c-.864 11.908-8.318 21.114-12.48 31.044 9.259 13.005 25.263-8.854 25.707-19.799 3.022-14.299-.951-30.774-12.402-40.194-4.515 9.239 1.368 20.107-.825 28.949z" style="fill:#e6d2af;stroke:none;stroke-width:.264583" transform="translate(-34.027 -74.991)"/><path d="M89.746 85.401c-10.715 2.587-22.201 1.026-32.542 5.288-16.136 2.49-26.952 21.227-21.292 36.486 3.313 19.197 10.198 39.482 26.183 51.794 13.711 8.731 32.687 5.883 44.474-4.848 14.168-8.875 27.34-21.522 44.782-23.066 9.352-1.488 15.93-9.017 23.976-13.306 10.87-7.838 17.037-24.064 9.357-36.113-3.9-7.793-9.278-15.444-17.486-19.043-5.958-4.84-15.324-8.279-22.119-3.095-10.001 4.096-21.068 1.557-31.444 3.703-7.688.604-15.4.811-23.11.945l-.78 1.255m6.88 92.34c-14.15 9.525-34.279 2.51-43.097-11.092-9.57-12.803-14.44-28.536-16.691-44.186-.649-13.418 8.38-26.899 21.654-30.168 13.5-4.423 29.347 1.611 36.567 13.839 9.373 12.512 17.835 27.66 15.38 43.876-1.266 10.378-5.685 20.902-13.813 27.731zM46.883 96.249l-.264.265Z" style="fill:#4e3a14;stroke:none;stroke-width:.264583" transform="translate(-34.027 -74.991)"/><path d="M85.376 86.976c-9.635-6.746-6.447 15.585 1.601 6.085 12.202-6.012 28.968-8.347 41.057-2.2 4.457 6.107 8.151 5.886 4.327-1.382 3.18-11.006 26.604-2.047 25.564-9.59-13.168-3.808-26.638 4.062-40.117 3.542-10.83.79-22.056-.32-32.432 3.545zm14.636 9.801c-4.85 5.273 6.196.14 0 0zm-3.524 8.456c3.916-5.389-7.857-1.402 0 0zm87.048 12.17c-.396 9.169-14.743 17.815-17.325 6.328-5.413 5.94-6.104 16.754-16.771 17.5-8.995 8.7-21.91 4.028-19.772-9.528-.098-7.079-6.208-25.588-10.848-21.8 4.052 10.25 10.634 19.934 9.302 31.555 1.569 15.342-17.697 6.993-20.217 18.42-1.673 17.63 16.302.215 23.427-2.905 15.683-6.768 33.874-9.883 46.128-22.882 6.173-5.335 15.049-21.107 5.365-25.068.49 2.643 3.01 5.913.711 8.38zm-24.842-11.166c-6.061 6.474 10.878 6.478 0 0zm17.17 15.4c-1.835 5.303 3.575-3.77 0 0z" style="fill:#2f250f;stroke:none;stroke-width:.264583" transform="translate(-34.027 -74.991)"/><path d="M76.634 184.403c-6.284-1.359-12.912-2.936-17.89-7.248-4.806-5.314-9.334-10.99-13.033-17.159-2.99-5.726-4.623-11.927-6.534-18.062-2.835-6.172-4-13.01-4.07-19.702-2.43-6.422-.518-13.2 3.332-18.398 2.997-3.841 5.633-7.919 8.93-11.31 9.576-.033 18.595-8.36 24.614-5.42 5.946.524 11.973-1.632 17.416-3.17 5.098-3.01 11.625-.56 17.624-.956 7.34-2.513 15.191-1.484 22.774-2.513 6.905.509 13.356-1.998 20.099-2.852 3.365-.296 6.746-2.503 1.027-1.944-5.152-.718 5.828-1.43 7.127 1.047 5.327 2.64 11.037 3.857 15.366 8.649 6.566 2.178 7.74 9.418 11.616 14.288 3.082 7.85 5.916 17.457.651 25.07-2.531 3.973-6.684 13.896-10.218 12.664 3.456-5.058-3.708 2.987-5.564 3.636-5.805 3.698-10.781 10.419-18.922 9.56-6.315 1.313-13.455 2.186-17.496 7.853-5.46 2.288-9.574 4.822-14.889 7.545-5.067 8.917-13.821 10.494-13.827 10.513-6.437 8.47-18.082 7.684-28.133 7.91zm2.423-.95c-3.548-1.21-1.922 1.269 0 0zm4.386-2.5c5.497-.114 9.613-.823 13.535-5.121 5.077-3.445 6.836-4.785 8.405-10.34.073-5.783 5.108-8.916 5.186-14.487-.152-6.216.597-13.387-2.095-18.853.044-6.292-3.545-10.524-6.748-15.497-2.566-6.25-6.347-12.266-11.731-16.495-4.382-2.457-6.202-7.195-12.122-7.263-6.26-3.173-13.34-2.04-19.668.478-5.616 1.058-10.112 4.4-13.7 8.7-6.322 8.095-7.842 18.934-5.631 28.797 2.08 10.985 6.988 21.242 12.432 30.914 5.347 8.186 12.825 15.582 22.55 18.077 3.065 1.65 6.234 2.766 9.587 1.09zm-9.281.4c-3.995-1.233-9.534-3.852-12.039-5.4 2.86 3.323 8.796 5.65 12.039 5.4zm20.162-1.21c3.425-.885 8.665-4.469 9.881-5.927-3.043-.6-9.881 5.927-9.881 5.927zm-29.555-.717c-10.496-4.943-12.674-15.607-20.043-24.48 2.466 6.3 6.656 11.453 10.61 16.835 3.514 2.075 4.497 7.624 9.433 7.645zm50.21-24.895c2.767-3.03 1.152 7.497 1.005 9.307 3.52-3.58 8.258-3.667 11.537-7.05 2.43-2.953-3.873-1.469-.069-2.944 2.703-4.582-.16-9.495 1.324-14.878-2.951-5.519-.978-11.253-2.785-17.311-2.154-5.339-2.891-13.482-9.855-14.27 1.912-3.562-6.396-5.957-4.125-6.598 2.197.973 6.183 3.745 2.135.384-3.886-4.885 5.343 2.638 5.639 5.348 6.796 2.527 7.66 10.43 9.365 15.9 3.774 4.981 1.57 12.552 1.973 18.172 2.746 5.203-3.962 12.993-.424 16.939 4.833-1.616 4.976-7.232 10.674-6.56 3.47-4.116 9.114-.904 13.487-3.137 4.493.753 10.45-4.322 8.286-7.432 3.165 2.781 2.01-6.27 3.087-8.58-.322-6.483-.643-13.795-5.683-18.585-3.42-3.328-2.327-7.685-4.311-11.626 3.717 3.135 7.742 6.68 8.29 12.083 3.652 5.516 2.704 13.065 4.068 19.46.582 2.08-4.953 10.095.707 5.958 4.455-2.525 8.237-6.32 5.817-11.818 1.136-4.505 3.222-10.787.018-15.394-.15-3.708 4.033 5.128 3.406 7.305 1.604 4.969-2.204-1.696-1.328 3.271-.77 2.294-2.353 11.993 1.806 8.672-.342-2.953 1.153-8.463 1.081-2.462.515 5.375 2.627-3.506 1.809-4.865 1.799-4.455 3.227-10.735 1.015-14.868-1.145-1.604-1.987-5.56.52-.818-1.113-4.354-1.127-7.333-3.022-10.758-4.874-1.244-2.23-9.253-8.612-10.532-3.238-2.381-9.624-8.332-12.078-6.262 2.308 1.083 4.157.988 1.672 2.373 4.608 6.938-2.552-4.3-6.672-2.282-5.454.548-1.915-1.006 1.424-.917-3.138-.946-9.78.053-14.242 1.237-3.581 3.103-13.6-1.038-14.28 3.476 3.441 5.242 7.803 8.005 10.383 14.097 2.205 3.356 2.036 7.822 4.802 11.352 1.446 2.105 2.764 7.999-.91 4.19-1.42-5.509-3.47-9.744-5-14.85-4.015-5.49-10.81-8.371-14.446-14.24-1.924-1.854-13.022-3.95-9.493.644 5.025-1.719 6.16 7.648.732 2.972-3.296-.557-2.771-4.806-6.996-3.22-5.66-.261-13.484-1.443-18.05 2.024-3.691 5.04-12.927-1.25-13.519 3.067 6.876.777 13.513 3.672 18.898 8.45 7.162 7.237 11.596 16.67 15.775 25.757 2.63 10.717 3.548 21.878 3.593 32.898.89 4.29-5.075 8.825-3.665 11.722 3.818-4.015 5.653-10.609 5.238-14.8zm6.401 1.899c-.952-4.5 3.472-6.181 1.325-.397.056.682-1.34 1.695-1.325.397zm25.29-26.459c-.25-2.495-4.187-10.21.017-4.237.64.589 2.04 5.47-.017 4.237zm-43.976-29.75c-1.026-2.144-6.436-7.02-1.164-2.58.55.502 3.985 4.742 1.164 2.58zm46.885-1.657c-1.234-5.736 3.713-2.149 0 0zm19.919-4.656c-1.43-1.809-5.98-4.056-1.082-2.246.624-.154 3.006 4.343 1.082 2.246zm-25.535-3.254c-3.302-1.423-3.93-3.809-.063-.988.871-.404 1.158 2.131.063.988zm5.97-3.148c-1.481-2.056-11.524-7.125-3.672-3.638.74.032 6.498 4.118 3.673 3.638zm-22.456 35.17c1.995 4.585-1.242 10.968 2.39 13.937.255-4.9-.008-12.582-2.39-13.937zm58.667-2.5c2.04-3.133-1.265-7.456-1.266-1.78-.63 1.854-.434 5.385 1.266 1.78zm-79.756 1.329c-1.907-3.96-2.545-7.347-5.514-11.317-1.967-2.828-4.208-3.642-.931-.304 1.986 3.582 3.632 9.747 6.445 11.62zm-69.548-4.153c.88-2.523 1.11-6.544-1.675-2.769-.35 1.547 1.618 7.517 1.675 2.77zm90.107-.102c-1.084-1.898-5.687-12.227-3.18-4.675.226.506 2.887 7.8 3.18 4.675zm38.226-.508c-3.307-2.68-2.418-9.988-6.013-10.768-1.314 4.193 4.743 10.099 6.013 10.768zm22.043-4.949c.235-2.696-2.854-10.737-1.213-3.586-.691 1.913 1.723 10.338 1.213 3.586zm-149.404-.614c.117-2.222-.41-6.89-.666-1.71-.604 1.304-1.515 4.04.666 1.71zm2.213-3.568c.659-4.352-2.79 2.058-.57 1.19zM87.03 96.732c3.988 2.597 7.66 6.584 11.536 9.435-2.293-3.125-9.425-11.418-11.536-9.435zm-42.287 3.591c4.842-5.36-5.18 2.808-2.538 2.727.771-.977 1.658-1.851 2.538-2.727zm4.93-4.121c1.938-1.214 6.765-3.803 1.315-2.316-3.916-1.733-5.147 5.16-1.315 2.316zm131.015-.23c-3.806-5.849-2.148 2.64 0 0zm-47.436-3.515c-3.17-1.802-5.203-7.7-9.15-8.026-.338 1.467 9.929 12.013 9.15 8.026zm-50.771.41c-5.314-1.889-1.346.64 0 0zm-18.043-2.361c2.266-.46 7.615-1.784 7.744-1.344-1.546-1.73-6.64 1.476-4.784-1.03-1.01-.31-8.14 3.84-2.96 2.374zm20.068-3.796c-2.199.177-6.94 2.246-1.627 1.95 2.906-.234 8.242-4.9 1.627-1.95z" style="fill:#000;stroke-width:.264583" transform="translate(-34.027 -74.991)"/></svg>